<svg width="65" height="62" viewBox="0 0 65 62" fill="none" xmlns="http://www.w3.org/2000/svg">
<path d="M59.3478 14.6874H50.3043L45.2174 8.81245H28.2609V14.6874H42.6739L48.0435 20.5624H59.3478V55.8122H14.1304V29.3748H8.47826V55.8122C8.47826 59.0434 11.0217 61.6871 14.1304 61.6871H59.3478C62.4565 61.6871 65 59.0434 65 55.8122V20.5624C65 17.3311 62.4565 14.6874 59.3478 14.6874ZM22.6087 38.1873C22.6087 51.2591 37.8413 57.839 46.7435 48.586C55.6457 39.3329 49.3152 23.4999 36.7391 23.4999C28.9391 23.4999 22.6087 30.0798 22.6087 38.1873ZM36.7391 29.3748C38.9675 29.4414 41.087 30.3912 42.6633 32.0296C44.2396 33.6681 45.1534 35.8711 45.2174 38.1873C45.1534 40.5034 44.2396 42.7065 42.6633 44.3449C41.087 45.9834 38.9675 46.9332 36.7391 46.9997C34.5108 46.9332 32.3913 45.9834 30.815 44.3449C29.2387 42.7065 28.3249 40.5034 28.2609 38.1873C28.3249 35.8711 29.2387 33.6681 30.815 32.0296C32.3913 30.3912 34.5108 29.4414 36.7391 29.3748ZM14.1304 14.6874H22.6087V8.81245H14.1304V0H8.47826V8.81245H0V14.6874H8.47826V23.4999H14.1304" fill="#3E5B88"/>
</svg>
